<svg xmlns="http://www.w3.org/2000/svg" viewBox="0 0 1327 920" role="img" aria-label="Full Plate logo">
  <path fill="currentColor" fill-rule="evenodd" d="M 1163 801 L 1162 800 L 1109 825 L 1058 844 L 966 870 L 914 881 L 836 893 L 712 902 L 618 902 L 567 900 L 487 893 L 410 882 L 336 867 L 280 852 L 220 831 L 170 807 L 164 806 L 173 814 L 200 831 L 260 858 L 319 877 L 386 893 L 437 902 L 525 913 L 605 918 L 678 919 L 757 916 L 830 909 L 886 901 L 951 888 L 1017 870 L 1071 851 L 1138 819 L 1157 807 Z M 1326 675 L 1320 661 L 1310 650 L 1294 638 L 1263 622 L 1202 601 L 1154 590 L 1141 589 L 1140 590 L 1142 592 L 1187 604 L 1227 618 L 1261 634 L 1275 643 L 1293 660 L 1297 667 L 1298 681 L 1292 693 L 1282 703 L 1266 714 L 1227 732 L 1170 750 L 1110 764 L 1024 779 L 940 790 L 849 798 L 734 803 L 587 803 L 512 800 L 424 794 L 292 779 L 184 759 L 108 738 L 78 726 L 57 715 L 45 707 L 31 691 L 28 684 L 28 672 L 30 666 L 47 647 L 57 640 L 81 627 L 107 616 L 155 600 L 186 593 L 189 590 L 163 593 L 103 608 L 74 618 L 40 634 L 23 645 L 7 661 L 1 673 L 0 689 L 5 702 L 18 717 L 38 731 L 66 745 L 127 766 L 179 779 L 229 789 L 349 806 L 483 817 L 614 822 L 721 822 L 858 816 L 986 804 L 1078 790 L 1159 773 L 1239 749 L 1287 727 L 1306 714 L 1318 702 L 1326 686 Z M 970 380 L 948 387 L 929 398 L 912 414 L 904 425 L 896 441 L 890 462 L 889 493 L 891 505 L 898 526 L 908 543 L 924 560 L 935 568 L 956 578 L 975 582 L 1002 582 L 1014 580 L 1034 573 L 1048 565 L 1065 549 L 1071 539 L 1049 536 L 1031 553 L 1022 558 L 1006 563 L 979 564 L 964 560 L 945 549 L 928 530 L 920 512 L 916 492 L 916 483 L 918 481 L 1082 481 L 1080 454 L 1074 435 L 1065 419 L 1057 409 L 1042 396 L 1013 382 L 996 379 Z M 917 461 L 923 441 L 937 421 L 958 406 L 982 400 L 994 400 L 1009 403 L 1030 414 L 1046 432 L 1055 455 L 1054 463 L 919 463 Z M 590 397 L 576 412 L 570 426 L 592 431 L 599 420 L 609 411 L 624 403 L 640 399 L 668 400 L 686 407 L 697 416 L 706 430 L 709 441 L 709 460 L 650 461 L 629 463 L 602 470 L 585 479 L 571 492 L 564 504 L 561 514 L 561 538 L 563 545 L 571 559 L 586 572 L 605 580 L 616 582 L 641 582 L 662 577 L 679 569 L 694 558 L 709 541 L 710 578 L 736 578 L 736 451 L 731 425 L 720 406 L 707 394 L 691 385 L 663 378 L 641 378 L 619 382 L 602 389 Z M 710 480 L 709 508 L 702 527 L 684 547 L 671 556 L 647 564 L 622 564 L 605 558 L 592 545 L 587 531 L 587 521 L 590 510 L 595 502 L 611 489 L 627 483 L 645 480 Z M 420 394 L 400 384 L 381 379 L 342 379 L 324 384 L 307 392 L 288 406 L 275 421 L 273 419 L 273 388 L 249 389 L 249 659 L 276 659 L 276 544 L 296 563 L 320 576 L 345 582 L 374 582 L 396 577 L 419 566 L 437 552 L 453 531 L 461 513 L 465 496 L 466 471 L 464 457 L 460 443 L 447 419 L 431 402 Z M 343 399 L 376 400 L 391 405 L 402 411 L 423 431 L 431 445 L 437 465 L 438 488 L 436 502 L 432 514 L 424 529 L 407 547 L 388 558 L 370 563 L 354 564 L 333 561 L 306 548 L 289 532 L 283 523 L 274 497 L 273 478 L 275 462 L 281 444 L 288 432 L 301 418 L 312 410 L 324 404 Z M 790 339 L 790 381 L 758 383 L 758 403 L 788 403 L 790 405 L 790 537 L 794 552 L 799 561 L 810 572 L 819 577 L 834 581 L 859 581 L 872 578 L 872 559 L 847 562 L 832 558 L 821 547 L 816 527 L 816 405 L 818 403 L 872 403 L 872 382 L 817 382 L 815 374 L 815 338 Z M 497 289 L 496 571 L 497 578 L 521 579 L 523 578 L 523 289 Z M 539 107 L 539 232 L 544 253 L 554 271 L 568 284 L 581 291 L 599 296 L 618 297 L 642 293 L 660 285 L 674 275 L 687 260 L 688 292 L 714 293 L 715 107 L 688 107 L 688 225 L 684 241 L 676 255 L 660 269 L 648 275 L 632 279 L 615 279 L 596 274 L 585 267 L 573 253 L 568 242 L 565 225 L 565 107 Z M 528 6 L 514 3 L 488 3 L 471 7 L 452 17 L 439 29 L 427 51 L 423 73 L 423 106 L 385 108 L 383 128 L 423 129 L 423 293 L 449 293 L 450 129 L 503 128 L 503 107 L 450 106 L 450 69 L 454 54 L 459 45 L 469 35 L 482 28 L 492 25 L 516 25 L 528 28 Z M 840 0 L 839 292 L 866 293 L 866 0 Z M 760 0 L 760 293 L 786 293 L 787 1 Z"/>
</svg>
